<?xml version="1.0" encoding="utf-8"?>
<!-- Generator: Adobe Illustrator 19.0.0, SVG Export Plug-In . SVG Version: 6.00 Build 0)  -->
<svg version="1.1" id="Layer_1" xmlns="http://www.w3.org/2000/svg" xmlns:xlink="http://www.w3.org/1999/xlink" x="0px" y="0px"
	 viewBox="0 0 200 200" style="enable-background:new 0 0 200 200;" xml:space="preserve">
<style type="text/css">
	.st0{fill:#8f7d4a;}
</style>
<g id="XMLID_63_">
	<g id="XMLID_67_">
		<path id="XMLID_10_" class="st0" d="M24.8,0.7c0,0,2.1,2.9,5.7,8c3.6,5.1,8.9,12.3,15.3,20.9c6.4,8.6,13.8,18.6,22,29.3
			c4.1,5.3,8.3,10.8,12.6,16.4c4.3,5.5,8.7,11.2,13.1,16.8c8.9,11.2,17.7,22.4,26,32.9c4.2,5.2,8.2,10.3,12,15.1
			c3.8,4.8,7.4,9.4,10.7,13.6c6.6,8.4,12,15.5,15.8,20.6c1.9,2.5,3.3,4.5,4.3,5.8c1,1.4,1.5,2.1,1.5,2.1c0.3,0.4,0.2,0.9-0.2,1.2
			c-0.4,0.3-0.8,0.2-1.1-0.1c0,0-0.6-0.7-1.7-1.9c-1.1-1.3-2.7-3.1-4.8-5.5c-2.1-2.3-4.5-5.2-7.4-8.6c-2.8-3.3-6-7.1-9.4-11.3
			c-3.4-4.1-7-8.7-10.9-13.5c-3.8-4.8-7.8-9.9-11.9-15.2c-4.1-5.3-8.4-10.8-12.6-16.4c-4.2-5.6-8.5-11.3-12.8-17
			c-8.5-11.5-17-23-25-33.8c-7.9-10.8-15.3-20.9-21.6-29.5C31.9,13.2,23.5,1.7,23.5,1.7c-0.3-0.4-0.2-0.9,0.2-1.2
			C24,0.2,24.6,0.3,24.8,0.7L24.8,0.7z"/>
	</g>
	<g id="XMLID_64_">
		<path id="XMLID_8_" class="st0" d="M174.1,168.2c-0.1,1.2-0.1,2.4-0.2,3.6c0,1.2,0,2.4,0,3.6l0.1,1.8l0.2,1.8
			c0.1,1.2,0.3,2.4,0.4,3.5c0.2,1.2,0.4,2.3,0.6,3.5c0.2,1.2,0.5,2.3,0.8,3.5c0.3,1.1,0.6,2.3,1,3.4c0.4,1.1,0.7,2.2,1.1,3.4
			c0.3,0.7-0.1,1.6-0.9,1.8c-0.2,0.1-0.4,0.1-0.5,0.1l-0.2,0c-2.5-0.1-5-0.2-7.5-0.4c-2.5-0.2-4.9-0.6-7.4-1c-2.5-0.4-4.9-1-7.3-1.7
			l-1.8-0.6l-1.8-0.6l-1.7-0.7c-0.6-0.3-1.1-0.5-1.7-0.8c-0.4-0.2-0.6-0.7-0.4-1.2c0.2-0.3,0.5-0.5,0.8-0.5c2.5,0.1,4.9,0.5,7.3,0.9
			c0.6,0.1,1.2,0.2,1.8,0.3c0.6,0.1,1.2,0.2,1.8,0.3c1.2,0.2,2.4,0.4,3.6,0.7l7.2,1.3l3.6,0.6l3.6,0.5l-1.6,1.9
			c-0.3-1.2-0.6-2.4-0.8-3.6c-0.2-1.2-0.5-2.4-0.7-3.6l-0.5-3.6c-0.2-1.2-0.3-2.4-0.4-3.6c-0.1-1.2-0.2-2.4-0.3-3.6l-0.2-3.6
			c0-1.2,0-2.4,0-3.6c0-1.2,0-2.4,0-3.6l0,0c0-0.5,0.4-0.8,0.9-0.8C173.7,167.3,174.1,167.7,174.1,168.2
			C174.1,168.2,174.1,168.2,174.1,168.2z"/>
	</g>
</g>
</svg>
